
<svg width="178" height="178" viewBox="0 0 178 178" fill="none" xmlns="http://www.w3.org/2000/svg"><path d="M83.489.904C63.37 2.051 43.958 10.362 29.068 24.202 17.78 34.694 9.851 47.068 5.036 61.707c-5.734 17.433-5.734 37.153 0 54.586 10.519 31.978 37.965 55.205 70.969 60.06 7.296 1.073 17.848 1.136 25.01.149 17.941-2.472 34.688-10.407 47.917-22.704 15.65-14.546 25.256-33.421 27.77-54.562.606-5.093.606-15.381 0-20.471-2.791-23.446-14.35-44.15-32.967-59.049-11.694-9.358-26.708-15.858-41.74-18.069C99.068 1.217 89.833.548 88.11.642c-.408.022-2.487.14-4.621.262m16.429 10.494c22.31 3.348 41.442 15.333 54.023 33.844C162.62 58.011 167.32 73.382 167.32 89c0 26.046-12.844 50.18-34.562 64.941-10.89 7.402-23.296 11.79-37.083 13.116-4.302.414-13.262.179-17.593-.462-17.151-2.536-32.29-10.119-44.424-22.253-12.193-12.193-19.573-26.946-22.297-44.571-.694-4.497-.694-17.045 0-21.542 2.724-17.625 10.104-32.378 22.297-44.571C46.939 20.377 62.872 12.96 82.622 10.866c2.569-.272 14.352.09 17.296.532M69.865 51.386c-.77.442-1.421 1.146-1.854 2.004l-.668 1.322v68.576l.668 1.322c.925 1.832 2.514 2.722 4.596 2.574 1.498-.107 2.5-.741 27.471-17.386C128.232 91.031 127.27 91.767 127.27 89c0-2.767.962-2.031-27.192-20.798-24.971-16.645-25.973-17.279-27.471-17.386-1.218-.087-1.813.037-2.742.57m25.514 25.648C105.087 83.506 113.03 88.89 113.03 89c0 .195-35.159 23.733-35.451 23.733-.082 0-.149-10.68-.149-23.733s.067-23.733.149-23.733c.082 0 8.092 5.295 17.8 11.767" fill-rule="evenodd" fill="#000"/></svg>